<svg xmlns="http://www.w3.org/2000/svg" width="17.586" height="17.586" viewBox="0 0 17.586 17.586">
  <path id="generate-outlined" d="M31.947,16a1.139,1.139,0,0,0-1.139,1.139v2.637A7.722,7.722,0,0,0,17.2,21.916a1.139,1.139,0,0,0,2.168.7,5.443,5.443,0,0,1,9.608-1.491h-1.58a1.139,1.139,0,1,0,0,2.278h4.556a1.139,1.139,0,0,0,1.139-1.139V17.139A1.138,1.138,0,0,0,31.947,16Zm-.79,9.739a1.138,1.138,0,0,0-1.434.733,5.443,5.443,0,0,1-9.607,1.488H21.7a1.139,1.139,0,0,0,0-2.278H17.139A1.139,1.139,0,0,0,16,26.821v5.126a1.139,1.139,0,0,0,2.278,0V29.309a7.7,7.7,0,0,0,13.58-2.14A1.081,1.081,0,0,0,31.157,25.739Z" transform="translate(-15.75 -15.75)" fill="none" stroke="#4e4e4e" stroke-width="0.5"/>
</svg>
