<svg xmlns="http://www.w3.org/2000/svg" width="19.721" height="17.63" viewBox="0 0 19.721 17.63">
  <path id="home-outlined" d="M19.215,8.526A1.078,1.078,0,0,1,18.147,9.6H17.079L17.1,14.94a2.4,2.4,0,0,1-.017.27v.541a1.334,1.334,0,0,1-1.335,1.335h-.534c-.037,0-.073-.03-.11,0-.047-.027-.093,0-.14,0H13.081a1.334,1.334,0,0,1-1.335-1.335V12.814a1.067,1.067,0,0,0-1.068-1.068H8.543a1.067,1.067,0,0,0-1.068,1.068v2.937A1.334,1.334,0,0,1,6.14,17.086H4.275c-.05,0-.1,0-.15-.007s-.08.007-.12.007H3.471a1.335,1.335,0,0,1-1.335-1.335V12.013c0-.03,0-.063,0-.093V9.6H1.07A1.058,1.058,0,0,1,0,8.526a1.084,1.084,0,0,1,.334-.8L8.89.267A.962.962,0,0,1,9.624,0a1.122,1.122,0,0,1,.7.234l8.52,7.491a.906.906,0,0,1,.367.8Z" transform="translate(0.25 0.25)" fill="none" stroke="#707070" stroke-width="0.5"/>
</svg>
