<svg xmlns="http://www.w3.org/2000/svg" width="17.586" height="17.586" viewBox="0 0 17.586 17.586">
  <path id="qrcode-outlined" d="M5.492,32a1.831,1.831,0,0,1,1.831,1.831v3.661a1.831,1.831,0,0,1-1.831,1.831H1.831A1.831,1.831,0,0,1,0,37.492V33.831A1.831,1.831,0,0,1,1.831,32Zm-.61,2.441H2.441v2.441H4.882Zm.61,7.322a1.831,1.831,0,0,1,1.831,1.831v3.661a1.831,1.831,0,0,1-1.831,1.831H1.831A1.831,1.831,0,0,1,0,47.255V43.594a1.831,1.831,0,0,1,1.831-1.831ZM4.882,44.2H2.441v2.441H4.882ZM9.763,33.831A1.831,1.831,0,0,1,11.594,32h3.661a1.831,1.831,0,0,1,1.831,1.831v3.661a1.831,1.831,0,0,1-1.831,1.831H11.594a1.831,1.831,0,0,1-1.831-1.831ZM12.2,36.882h2.441V34.441H12.2Zm1.22,10.984h1.22v1.22h-1.22Zm3.661,1.22h-1.22v-1.22h1.22Zm-1.22-7.322h1.22v4.882H13.425v-1.22H12.2v3.661H9.763V41.763h3.661v1.22h2.441Z" transform="translate(0.25 -31.75)" fill="none" stroke="#4e4e4e" stroke-width="0.5"/>
</svg>
