<svg xmlns="http://www.w3.org/2000/svg" width="16.63" height="17.586" viewBox="0 0 16.63 17.586">
  <path id="setting-outlined" d="M30.76,5.56a.757.757,0,0,1-.21.821L29.1,7.7a6.361,6.361,0,0,1,0,1.7l1.445,1.315a.757.757,0,0,1,.21.821,8.471,8.471,0,0,1-.524,1.145l-.157.27a8.793,8.793,0,0,1-.737,1.045.763.763,0,0,1-.818.227l-1.859-.594a7.3,7.3,0,0,1-1.468.851l-.417,1.905a.8.8,0,0,1-.607.594,8.72,8.72,0,0,1-1.448.117,8.535,8.535,0,0,1-1.388-.117.8.8,0,0,1-.607-.594l-.417-1.905a6.559,6.559,0,0,1-1.468-.851l-1.857.594a.762.762,0,0,1-.818-.227,8.757,8.757,0,0,1-.738-1.045l-.156-.27a8.323,8.323,0,0,1-.527-1.145.758.758,0,0,1,.212-.821L16.4,9.391a6.474,6.474,0,0,1,0-1.7L14.959,6.38a.757.757,0,0,1-.212-.821,8.363,8.363,0,0,1,.527-1.145l.156-.27A8.645,8.645,0,0,1,16.168,3.1a.758.758,0,0,1,.818-.227l1.857.593a6.418,6.418,0,0,1,1.468-.85L20.729.712a.757.757,0,0,1,.607-.595,8.645,8.645,0,0,1,2.837,0,.757.757,0,0,1,.607.595L25.2,2.617a7.126,7.126,0,0,1,1.468.85l1.859-.593a.759.759,0,0,1,.818.227,8.64,8.64,0,0,1,.737,1.043l.157.27A8.471,8.471,0,0,1,30.76,5.56Zm-8.006,5.653a2.685,2.685,0,1,0-2.67-2.7A2.676,2.676,0,0,0,22.754,11.213Z" transform="translate(-14.439 0.25)" fill="none" stroke="#4e4e4e" stroke-width="0.5"/>
</svg>
